<?xml version="1.0" standalone="no"?><!DOCTYPE svg PUBLIC "-//W3C//DTD SVG 1.1//EN" "http://www.w3.org/Graphics/SVG/1.1/DTD/svg11.dtd"><svg t="1710757359387" class="icon" viewBox="0 0 1024 1024" version="1.1" xmlns="http://www.w3.org/2000/svg" p-id="7481" xmlns:xlink="http://www.w3.org/1999/xlink" width="200" height="200"><path d="M807.125333 73.813333c-10.794667-4.778667-23.296 0.170667-29.44 10.24-18.432 30.506667-48.597333 59.178667-89.941333 81.621334a339.370667 339.370667 0 0 1-73.301333 28.970666 111.573333 111.573333 0 0 1 8.021333 64 406.186667 406.186667 0 0 0 95.786667-36.693333c52.522667-28.501333 93.44-67.242667 118.357333-111.829333a19.84 19.84 0 0 0-9.984-27.733334l-19.498667-8.618666zM401.493333 258.645333a406.4 406.4 0 0 1-95.146666-36.394666c-52.650667-28.416-93.653333-67.114667-118.698667-111.658667a19.84 19.84 0 0 1 9.898667-27.733333l19.498666-8.661334c10.752-4.778667 23.296 0.128 29.44 10.197334 18.56 30.464 48.810667 59.136 90.282667 81.493333a339.626667 339.626667 0 0 0 72.746667 28.714667 111.616 111.616 0 0 0-8.021334 64z m158.464-18.688a48 48 0 1 1-96 0 48 48 0 0 1 96 0z m304 289.792c0-194.645333-225.365333-273.322667-349.610666-151.978666a212.992 212.992 0 0 0-2.389334 2.389333 256.725333 256.725333 0 0 0-2.389333-2.389333c-124.245333-121.344-349.610667-42.666667-349.610667 151.978666 0 82.346667 36.181333 149.376 93.013334 213.76 50.389333 57.173333 120.021333 115.370667 200.234666 182.485334l26.624 22.272a49.92 49.92 0 0 0 64.256 0l26.538667-22.229334 0.085333-0.042666c80.213333-67.114667 149.845333-125.312 200.277334-182.485334 56.789333-64.384 92.970667-131.413333 92.970666-213.76z" fill="#707070" p-id="7482"></path></svg>