<?xml version="1.0" standalone="no"?><!DOCTYPE svg PUBLIC "-//W3C//DTD SVG 1.1//EN" "http://www.w3.org/Graphics/SVG/1.1/DTD/svg11.dtd"><svg t="1710756949436" class="icon" viewBox="0 0 1117 1024" version="1.1" xmlns="http://www.w3.org/2000/svg" p-id="4632" xmlns:xlink="http://www.w3.org/1999/xlink" width="218.1640625" height="200"><path d="M777.309091 91.911758l-8.129939-43.039031C764.524606 23.272727 741.251879 4.654545 714.472727 4.654545h-311.854545c-26.748121 0-48.872727 18.618182-54.675394 44.218182l-8.16097 43.039031a109.878303 109.878303 0 0 1-53.527273 72.145454V167.563636c0 186.181818 122.197333 336.306424 273.470061 336.306425S833.163636 352.597333 833.163636 167.563636v-3.506424c-27.927273-16.259879-48.872727-40.711758-55.854545-72.145454z" fill="#707070" p-id="4633"></path><path d="M1001.906424 179.2h-110.560969c-4.654545 201.293576-136.16097 366.529939-303.724607 384l54.706425 83.781818c4.654545 6.981818 4.654545 16.290909 0 23.272727l-66.311758 102.4a20.666182 20.666182 0 0 1-34.909091 0L474.763636 670.254545a21.131636 21.131636 0 0 1 0-23.272727l54.675394-83.781818c-166.384485-17.470061-299.03903-182.675394-303.693575-384H115.184485c-73.293576 0-125.672727 70.966303-103.548121 141.963636l195.490909 623.709091a108.606061 108.606061 0 0 0 103.548121 76.8h498.036364A108.606061 108.606061 0 0 0 912.290909 944.872727l195.490909-623.709091c20.945455-70.966303-32.581818-141.963636-105.906424-141.963636z" fill="#707070" p-id="4634"></path></svg>