<?xml version="1.0" standalone="no"?><!DOCTYPE svg PUBLIC "-//W3C//DTD SVG 1.1//EN" "http://www.w3.org/Graphics/SVG/1.1/DTD/svg11.dtd"><svg t="1710756925576" class="icon" viewBox="0 0 1024 1024" version="1.1" xmlns="http://www.w3.org/2000/svg" p-id="4278" xmlns:xlink="http://www.w3.org/1999/xlink" width="200" height="200"><path d="M350.403 407.031l158.894 546.774 169.215-546.774z m160.808 549.777c-0.16 0.427-0.463 0.676-0.805 0.801l0.069 0.239c0 1.555-2.17 1.93-2.692 0.463L312.032 407.029H63.668l446.805 558.86 449.857-558.86H717.213L511.209 956.805z m-2.683-0.51c-0.018 1.1 1.053 1.61 1.876 1.311l-1.106-3.804-0.77 2.494z m451.804-587.766l-149.029-213.61H560.241l159.014 213.61z m-501.151-213.61H212.699L63.67 368.532h240.24z m213.317 213.61l-159.013-213.61h-7.939l-155.271 213.61z" fill="#707070" p-id="4279"></path></svg>